<svg width="24" height="24" viewBox="0 0 24 24" fill="none" xmlns="http://www.w3.org/2000/svg">
<g clip-path="url(#clip0_1_1123)">
<path d="M5.13758 14.0091L4.33065 17.0215L1.38136 17.0839C0.499949 15.4491 0 13.5786 0 11.591C0 9.66893 0.46744 7.85641 1.29601 6.26044H1.29664L3.92235 6.74182L5.07256 9.35177C4.83182 10.0536 4.70061 10.807 4.70061 11.591C4.7007 12.4418 4.85482 13.257 5.13758 14.0091Z" fill="#555555"/>
<path d="M22.9793 9.42535C23.1124 10.1265 23.1818 10.8506 23.1818 11.5907C23.1818 12.4205 23.0945 13.23 22.9283 14.0108C22.3641 16.6678 20.8897 18.9879 18.8473 20.6297L18.8467 20.6291L15.5395 20.4603L15.0714 17.5384C16.4266 16.7436 17.4858 15.4998 18.0437 14.0108H11.8457V9.42535H18.1341H22.9793Z" fill="#555555"/>
<path d="M18.8466 20.6294L18.8472 20.63C16.8608 22.2266 14.3376 23.1819 11.5908 23.1819C7.17668 23.1819 3.33896 20.7147 1.38123 17.0839L5.13745 14.0092C6.11629 16.6216 8.63637 18.4812 11.5908 18.4812C12.8607 18.4812 14.0504 18.138 15.0712 17.5387L18.8466 20.6294Z" fill="#555555"/>
<path d="M18.9894 2.66844L15.2344 5.74257C14.1779 5.08216 12.9289 4.70066 11.5909 4.70066C8.56963 4.70066 6.00243 6.64562 5.07262 9.35169L1.29665 6.26036H1.29602C3.22509 2.54108 7.11122 0 11.5909 0C14.4033 0 16.982 1.0018 18.9894 2.66844Z" fill="#555555"/>
</g>
<defs>
<clipPath id="clip0_1_1123">
<rect width="23.1818" height="23.1818" fill="white"/>
</clipPath>
</defs>
</svg>
