<svg width="178" height="66" viewBox="0 0 178 66" fill="none" xmlns="http://www.w3.org/2000/svg">
<rect width="178" height="66" rx="33" fill="#FCFCFD"/>
<path d="M59.3878 27.0851C59.6194 26.5484 60.3805 26.5484 60.6121 27.0851L62.0654 30.4531C62.1635 30.6803 62.3794 30.8345 62.6262 30.8536L66.3533 31.1416C66.9512 31.1878 67.1888 31.9385 66.7263 32.3204L63.9234 34.6346C63.7257 34.7978 63.6391 35.0599 63.7007 35.3088L64.5633 38.7944C64.7052 39.3676 64.0869 39.8286 63.578 39.529L60.3382 37.6217C60.1294 37.4988 59.8705 37.4988 59.6617 37.6217L56.4219 39.529C55.913 39.8286 55.2947 39.3676 55.4366 38.7944L56.2992 35.3088C56.3608 35.0599 56.2742 34.7978 56.0765 34.6346L53.2736 32.3204C52.8111 31.9385 53.0487 31.1878 53.6466 31.1416L57.3737 30.8536C57.6205 30.8345 57.8364 30.6803 57.9345 30.4531L59.3878 27.0851Z" fill="#23262F"/>
<path d="M81.088 38V26.8H83.136V36.4H88.096V38H81.088ZM94.1329 38.192C93.0129 38.192 92.0315 37.9467 91.1889 37.456C90.3569 36.9653 89.7009 36.288 89.2209 35.424C88.7515 34.5493 88.5169 33.5413 88.5169 32.4C88.5169 31.2587 88.7515 30.256 89.2209 29.392C89.7009 28.5173 90.3569 27.8347 91.1889 27.344C92.0315 26.8533 93.0129 26.608 94.1329 26.608C95.2422 26.608 96.2182 26.8533 97.0609 27.344C97.9035 27.8347 98.5595 28.5173 99.0289 29.392C99.4982 30.256 99.7329 31.2587 99.7329 32.4C99.7329 33.5413 99.4982 34.5493 99.0289 35.424C98.5595 36.288 97.9035 36.9653 97.0609 37.456C96.2182 37.9467 95.2422 38.192 94.1329 38.192ZM94.1329 36.352C95.1995 36.352 96.0475 36 96.6769 35.296C97.3169 34.592 97.6369 33.6267 97.6369 32.4C97.6369 31.1733 97.3169 30.208 96.6769 29.504C96.0475 28.8 95.1995 28.448 94.1329 28.448C93.0662 28.448 92.2129 28.8 91.5729 29.504C90.9329 30.208 90.6129 31.1733 90.6129 32.4C90.6129 33.6267 90.9329 34.592 91.5729 35.296C92.2129 36 93.0662 36.352 94.1329 36.352ZM106.437 38.192C105.381 38.192 104.458 37.952 103.669 37.472C102.88 36.992 102.266 36.3253 101.829 35.472C101.392 34.608 101.173 33.6053 101.173 32.464C101.173 31.312 101.397 30.2987 101.845 29.424C102.304 28.5387 102.949 27.8507 103.781 27.36C104.624 26.8587 105.621 26.608 106.773 26.608C108.085 26.608 109.173 26.9227 110.037 27.552C110.901 28.1813 111.461 29.0507 111.717 30.16H109.429C109.258 29.6373 108.949 29.232 108.501 28.944C108.053 28.6453 107.477 28.496 106.773 28.496C105.653 28.496 104.789 28.8533 104.181 29.568C103.573 30.272 103.269 31.2427 103.269 32.48C103.269 33.7173 103.568 34.6773 104.165 35.36C104.773 36.032 105.594 36.368 106.629 36.368C107.642 36.368 108.405 36.096 108.917 35.552C109.44 34.9973 109.754 34.272 109.861 33.376H107.029V31.84H111.925V38H110.037L109.877 36.528C109.514 37.0613 109.061 37.472 108.517 37.76C107.973 38.048 107.28 38.192 106.437 38.192ZM119.164 38.192C118.044 38.192 117.063 37.9467 116.22 37.456C115.388 36.9653 114.732 36.288 114.252 35.424C113.783 34.5493 113.548 33.5413 113.548 32.4C113.548 31.2587 113.783 30.256 114.252 29.392C114.732 28.5173 115.388 27.8347 116.22 27.344C117.063 26.8533 118.044 26.608 119.164 26.608C120.273 26.608 121.249 26.8533 122.092 27.344C122.935 27.8347 123.591 28.5173 124.06 29.392C124.529 30.256 124.764 31.2587 124.764 32.4C124.764 33.5413 124.529 34.5493 124.06 35.424C123.591 36.288 122.935 36.9653 122.092 37.456C121.249 37.9467 120.273 38.192 119.164 38.192ZM119.164 36.352C120.231 36.352 121.079 36 121.708 35.296C122.348 34.592 122.668 33.6267 122.668 32.4C122.668 31.1733 122.348 30.208 121.708 29.504C121.079 28.8 120.231 28.448 119.164 28.448C118.097 28.448 117.244 28.8 116.604 29.504C115.964 30.208 115.644 31.1733 115.644 32.4C115.644 33.6267 115.964 34.592 116.604 35.296C117.244 36 118.097 36.352 119.164 36.352Z" fill="#23262F"/>
</svg>
